<?xml version="1.0" encoding="utf-8"?>
<!-- Generator: Adobe Illustrator 26.5.0, SVG Export Plug-In . SVG Version: 6.00 Build 0)  -->
<svg version="1.1" id="Camada_1" xmlns="http://www.w3.org/2000/svg" xmlns:xlink="http://www.w3.org/1999/xlink" x="0px" y="0px"
	 viewBox="0 0 227 84" style="enable-background:new 0 0 227 84;" xml:space="preserve">
<style type="text/css">
	.st0{fill:url(#SVGID_1_);}
	.st1{fill:#010202;}
	.st2{fill-rule:evenodd;clip-rule:evenodd;fill:#FFCC00;}
	.st3{opacity:0.28;}
	.st4{fill:#A84317;}
	.st5{fill-rule:evenodd;clip-rule:evenodd;fill:#F3E8DF;}
	.st6{fill-rule:evenodd;clip-rule:evenodd;fill:url(#SVGID_00000160178861895762072110000012618845259026459523_);}
	.st7{fill-rule:evenodd;clip-rule:evenodd;fill:#FDF8F6;}
	.st8{fill:#020203;}
</style>
<g>
	<linearGradient id="SVGID_1_" gradientUnits="userSpaceOnUse" x1="0" y1="42" x2="227" y2="42">
		<stop  offset="1.222045e-06" style="stop-color:#FFCE00"/>
		<stop  offset="1" style="stop-color:#FED541"/>
	</linearGradient>
	<path class="st0" d="M208.38,84H18.62C8.34,84,0,75.66,0,65.38V18.62C0,8.34,8.34,0,18.62,0h189.76C218.66,0,227,8.34,227,18.62
		v46.76C227,75.66,218.66,84,208.38,84z"/>
	<g>
		<path class="st1" d="M120.56,37.97h-9.98v-2.1l3.58-3.62c1.06-1.09,1.75-1.84,2.08-2.26s0.56-0.81,0.7-1.17s0.21-0.73,0.21-1.11
			c0-0.57-0.16-1-0.47-1.28s-0.74-0.42-1.26-0.42c-0.55,0-1.09,0.13-1.61,0.38s-1.06,0.62-1.63,1.08l-1.64-1.94
			c0.7-0.6,1.29-1.02,1.75-1.27s0.97-0.44,1.51-0.57s1.16-0.2,1.84-0.2c0.89,0,1.68,0.16,2.36,0.49s1.21,0.78,1.59,1.37
			s0.57,1.26,0.57,2.01c0,0.66-0.12,1.27-0.35,1.85s-0.59,1.17-1.07,1.77s-1.34,1.47-2.56,2.59l-1.84,1.73v0.14h6.22V37.97z"/>
		<path class="st1" d="M126.67,30.51l-0.3-1.07c-0.28,0.38-0.62,0.67-1.03,0.88c-0.4,0.21-0.85,0.31-1.33,0.31
			c-0.76,0-1.35-0.19-1.75-0.57s-0.61-0.92-0.61-1.61c0-0.71,0.27-1.24,0.81-1.6s1.41-0.56,2.61-0.62l0.97-0.04
			c0-0.76-0.41-1.14-1.24-1.14c-0.53,0-1.23,0.2-2.12,0.6l-0.64-1.32c0.43-0.21,0.9-0.39,1.42-0.56s1.1-0.24,1.74-0.24
			c0.89,0,1.58,0.23,2.07,0.69s0.73,1.12,0.73,1.97v4.32H126.67z M123.65,28.43c0,0.25,0.07,0.43,0.22,0.55s0.33,0.18,0.54,0.18
			c0.5,0,0.9-0.13,1.19-0.41s0.43-0.62,0.43-1.04v-0.35l-0.97,0.06C124.12,27.48,123.65,27.82,123.65,28.43z"/>
		<path class="st1" d="M138.2,37.97l-4.16-10.92h3.12l2.11,6.22c0.23,0.79,0.38,1.53,0.44,2.24h0.06c0.03-0.62,0.18-1.37,0.44-2.24
			l2.1-6.22h3.12l-4.16,10.92H138.2z"/>
		<path class="st1" d="M146.85,24.23c0-0.97,0.54-1.46,1.62-1.46s1.62,0.49,1.62,1.46c0,0.46-0.14,0.82-0.41,1.08
			s-0.68,0.39-1.22,0.39C147.4,25.69,146.85,25.21,146.85,24.23z M149.96,37.97h-2.98V27.05h2.98V37.97z"/>
		<path class="st1" d="M160.02,37.97l-0.58-1.48h-0.08c-0.5,0.63-1.02,1.07-1.55,1.31s-1.22,0.37-2.08,0.37
			c-1.05,0-1.87-0.3-2.48-0.9s-0.9-1.45-0.9-2.56c0-1.16,0.41-2.01,1.22-2.56c0.81-0.55,2.03-0.85,3.67-0.91l1.89-0.06v-0.48
			c0-1.11-0.57-1.66-1.7-1.66c-0.87,0-1.9,0.26-3.08,0.79l-0.99-2.01c1.26-0.66,2.65-0.99,4.18-0.99c1.46,0,2.59,0.32,3.37,0.96
			s1.17,1.61,1.17,2.91v7.28H160.02z M159.14,32.91l-1.15,0.04c-0.87,0.03-1.51,0.18-1.93,0.47s-0.63,0.72-0.63,1.31
			c0,0.84,0.48,1.26,1.45,1.26c0.69,0,1.24-0.2,1.66-0.6s0.62-0.92,0.62-1.58V32.91z"/>
		<path class="st1" d="M114.79,61.16c-1.28,0-2.29-0.5-3.02-1.49s-1.1-2.38-1.1-4.14c0-1.79,0.37-3.19,1.12-4.18s1.77-1.5,3.08-1.5
			c1.37,0,2.42,0.53,3.14,1.6h0.1c-0.15-0.81-0.22-1.54-0.22-2.18v-3.5h2.99v15.2h-2.29l-0.58-1.42h-0.13
			C117.21,60.63,116.18,61.16,114.79,61.16z M115.84,58.79c0.76,0,1.32-0.22,1.67-0.66s0.55-1.19,0.58-2.26v-0.32
			c0-1.17-0.18-2.01-0.54-2.52s-0.95-0.76-1.76-0.76c-0.66,0-1.18,0.28-1.55,0.84s-0.55,1.38-0.55,2.46s0.19,1.88,0.56,2.42
			S115.15,58.79,115.84,58.79z"/>
		<path class="st1" d="M128.94,61.16c-1.76,0-3.13-0.49-4.12-1.46s-1.48-2.34-1.48-4.12c0-1.83,0.46-3.24,1.37-4.24
			s2.18-1.5,3.79-1.5c1.54,0,2.74,0.44,3.6,1.32s1.29,2.09,1.29,3.64v1.45h-7.04c0.03,0.85,0.28,1.51,0.75,1.98s1.13,0.71,1.97,0.71
			c0.66,0,1.28-0.07,1.87-0.21s1.2-0.35,1.84-0.65v2.3c-0.52,0.26-1.08,0.45-1.67,0.58S129.79,61.16,128.94,61.16z M128.52,51.97
			c-0.63,0-1.13,0.2-1.48,0.6s-0.56,0.97-0.62,1.7h4.18c-0.01-0.74-0.21-1.3-0.58-1.7S129.15,51.97,128.52,51.97z"/>
		<path class="st1" d="M147.08,49.85c1.29,0,2.3,0.5,3.03,1.51s1.09,2.38,1.09,4.14c0,1.8-0.38,3.2-1.13,4.19s-1.78,1.48-3.07,1.48
			c-1.28,0-2.29-0.47-3.02-1.4h-0.21l-0.5,1.2h-2.28v-15.2h2.98v3.54c0,0.45-0.04,1.17-0.12,2.16h0.12
			C144.68,50.39,145.71,49.85,147.08,49.85z M146.12,52.23c-0.74,0-1.27,0.23-1.61,0.68s-0.51,1.2-0.53,2.24v0.32
			c0,1.17,0.17,2.01,0.52,2.52s0.9,0.76,1.66,0.76c0.61,0,1.1-0.28,1.46-0.84s0.54-1.38,0.54-2.46s-0.18-1.88-0.55-2.42
			S146.75,52.23,146.12,52.23z"/>
		<path class="st1" d="M163.58,55.49c0,1.78-0.47,3.17-1.41,4.17s-2.24,1.5-3.92,1.5c-1.05,0-1.97-0.23-2.77-0.69
			s-1.42-1.12-1.85-1.98S153,56.64,153,55.49c0-1.78,0.47-3.17,1.4-4.16s2.24-1.48,3.93-1.48c1.05,0,1.97,0.23,2.77,0.68
			s1.42,1.11,1.85,1.96S163.58,54.35,163.58,55.49z M156.03,55.49c0,1.08,0.18,1.9,0.53,2.45s0.93,0.83,1.73,0.83
			c0.79,0,1.37-0.28,1.71-0.83s0.52-1.37,0.52-2.46c0-1.08-0.18-1.89-0.53-2.43s-0.93-0.81-1.73-0.81c-0.79,0-1.37,0.27-1.72,0.81
			S156.03,54.4,156.03,55.49z"/>
		<path class="st1" d="M169.02,60.97h-2.98v-15.2h2.98V60.97z"/>
		<path class="st1" d="M177.09,61.16c-1.76,0-3.13-0.49-4.12-1.46s-1.48-2.34-1.48-4.12c0-1.83,0.46-3.24,1.37-4.24
			s2.18-1.5,3.79-1.5c1.54,0,2.74,0.44,3.6,1.32s1.29,2.09,1.29,3.64v1.45h-7.04c0.03,0.85,0.28,1.51,0.75,1.98s1.13,0.71,1.97,0.71
			c0.66,0,1.28-0.07,1.87-0.21s1.2-0.35,1.84-0.65v2.3c-0.52,0.26-1.08,0.45-1.67,0.58S177.94,61.16,177.09,61.16z M176.67,51.97
			c-0.63,0-1.13,0.2-1.48,0.6s-0.56,0.97-0.62,1.7h4.18c-0.01-0.74-0.21-1.3-0.58-1.7S177.3,51.97,176.67,51.97z"/>
		<path class="st1" d="M188.56,58.79c0.52,0,1.15-0.11,1.88-0.34v2.22c-0.74,0.33-1.65,0.5-2.73,0.5c-1.19,0-2.06-0.3-2.6-0.9
			s-0.82-1.51-0.82-2.71v-5.26h-1.43v-1.26l1.64-1l0.86-2.3h1.9v2.32h3.06v2.24h-3.06v5.26c0,0.42,0.12,0.74,0.36,0.94
			S188.17,58.79,188.56,58.79z"/>
		<path class="st1" d="M202.57,55.49c0,1.78-0.47,3.17-1.41,4.17s-2.24,1.5-3.92,1.5c-1.05,0-1.97-0.23-2.77-0.69
			s-1.42-1.12-1.85-1.98s-0.64-1.86-0.64-3.01c0-1.78,0.47-3.17,1.4-4.16s2.24-1.48,3.93-1.48c1.05,0,1.97,0.23,2.77,0.68
			s1.42,1.11,1.85,1.96S202.57,54.35,202.57,55.49z M195.02,55.49c0,1.08,0.18,1.9,0.53,2.45s0.93,0.83,1.73,0.83
			c0.79,0,1.37-0.28,1.71-0.83s0.52-1.37,0.52-2.46c0-1.08-0.18-1.89-0.53-2.43s-0.93-0.81-1.73-0.81c-0.79,0-1.37,0.27-1.72,0.81
			S195.02,54.4,195.02,55.49z"/>
	</g>
	<g>
		<g>
			<g>
				<path class="st2" d="M82.18,34.91c-0.08-0.31-0.15-0.62-0.24-0.93c-3.52-13.14-15.52-22.81-29.78-22.81
					c-17.03,0-30.83,13.8-30.83,30.83c0,7.28,2.52,13.97,6.76,19.25c0.95,1.19,1.98,2.3,3.09,3.33c3.01,2.8,6.6,5.01,10.55,6.43
					c0.58,0.22,1.18,0.41,1.78,0.59c2.74,0.8,5.65,1.23,8.65,1.23c1.19,0,2.37-0.07,3.53-0.2c5.64-0.64,10.81-2.81,15.1-6.07
					c0.44-0.33,0.87-0.68,1.28-1.03c1.16-0.98,2.24-2.04,3.23-3.18c1.03-1.17,1.98-2.42,2.82-3.74c2.88-4.49,4.63-9.77,4.84-15.44
					C82.99,42.78,83,42.39,83,42C83,39.56,82.71,37.19,82.18,34.91z"/>
			</g>
			<g class="st3">
				<path class="st4" d="M83,42c0,0.39-0.01,0.78-0.02,1.16c-0.21,5.67-1.95,10.95-4.84,15.44c-0.84,1.32-1.79,2.57-2.82,3.74
					c-1.36,1.55-2.87,2.96-4.52,4.21c-4.3,3.26-9.46,5.42-15.1,6.07c-1.16,0.13-2.34,0.2-3.53,0.2c-3.01,0-5.91-0.43-8.65-1.23
					c-0.6-0.17-1.2-0.37-1.78-0.59l-7.57-7.92l36.65-40.21l11.37,12.04C82.72,37.19,83,39.56,83,42z"/>
			</g>
			<path class="st5" d="M72.09,25.87v39.66c-0.42,0.36-0.84,0.7-1.28,1.03c-4.3,3.26-9.46,5.42-15.1,6.07
				c-1.16,0.13-2.34,0.2-3.53,0.2c-3.01,0-5.91-0.43-8.65-1.23c-0.61-0.17-1.2-0.37-1.78-0.59c-3.95-1.42-7.54-3.63-10.55-6.43
				V31.95l10.53-11.52h25.41C69.86,20.44,72.09,22.88,72.09,25.87z"/>
			
				<linearGradient id="SVGID_00000072257725237361622290000000474664243019124116_" gradientUnits="userSpaceOnUse" x1="43.5967" y1="33.0167" x2="36.2562" y2="26.0068">
				<stop  offset="0" style="stop-color:#F3E8DF"/>
				<stop  offset="1" style="stop-color:#CEC4BE"/>
			</linearGradient>
			
				<polygon style="fill-rule:evenodd;clip-rule:evenodd;fill:url(#SVGID_00000072257725237361622290000000474664243019124116_);" points="
				31.19,31.95 41.72,20.44 50.15,29.18 39.66,39.37 			"/>
			<polygon class="st7" points="31.19,31.95 41.72,20.44 41.72,31.95 			"/>
		</g>
		<g>
			<rect x="40.03" y="37.22" class="st8" width="1.25" height="15.18"/>
			<rect x="43.36" y="37.22" class="st8" width="1.25" height="15.18"/>
			<rect x="50.29" y="37.22" class="st8" width="1.25" height="15.18"/>
			<rect x="62.47" y="37.22" class="st8" width="1.25" height="15.18"/>
			<rect x="59.49" y="37.22" class="st8" width="0.22" height="15.18"/>
			<rect x="57.8" y="37.22" class="st8" width="0.22" height="15.18"/>
			<rect x="57.06" y="37.22" class="st8" width="0.22" height="15.18"/>
			<rect x="52.16" y="37.22" class="st8" width="0.41" height="15.18"/>
			<rect x="47.42" y="37.22" class="st8" width="0.41" height="15.18"/>
			<rect x="42.12" y="37.22" class="st8" width="0.41" height="15.18"/>
			<rect x="56.26" y="37.22" class="st8" width="0.22" height="15.18"/>
			<rect x="48.94" y="37.22" class="st8" width="0.22" height="15.18"/>
			<rect x="45.91" y="37.22" class="st8" width="0.22" height="15.18"/>
			<rect x="64.05" y="37.22" class="st8" width="0.22" height="15.18"/>
			<rect x="53" y="37.22" class="st8" width="1.43" height="15.18"/>
			<rect x="60" y="37.22" class="st8" width="1.43" height="15.18"/>
		</g>
	</g>
</g>
</svg>
