<?xml version="1.0" encoding="utf-8"?>
<!-- Generator: Adobe Illustrator 26.5.0, SVG Export Plug-In . SVG Version: 6.00 Build 0)  -->
<svg version="1.1" id="Camada_1" xmlns="http://www.w3.org/2000/svg" xmlns:xlink="http://www.w3.org/1999/xlink" x="0px" y="0px"
	 viewBox="0 0 227 84" style="enable-background:new 0 0 227 84;" xml:space="preserve">
<style type="text/css">
	.st0{fill:url(#SVGID_1_);}
	.st1{fill:#010202;}
	.st2{fill-rule:evenodd;clip-rule:evenodd;fill:#FFCC00;}
	.st3{opacity:0.28;fill:#A84317;}
	.st4{fill-rule:evenodd;clip-rule:evenodd;fill:#F3E8DF;}
	.st5{fill-rule:evenodd;clip-rule:evenodd;fill:url(#SVGID_00000142166527576297065190000015481159415620691617_);}
	.st6{fill-rule:evenodd;clip-rule:evenodd;fill:#FDF8F6;}
	.st7{fill:#FDCF02;}
</style>
<g>
	<linearGradient id="SVGID_1_" gradientUnits="userSpaceOnUse" x1="0" y1="42" x2="227" y2="42">
		<stop  offset="1.222045e-06" style="stop-color:#FFCE00"/>
		<stop  offset="1" style="stop-color:#FED541"/>
	</linearGradient>
	<path class="st0" d="M208.38,84H18.62C8.34,84,0,75.66,0,65.38V18.62C0,8.34,8.34,0,18.62,0h189.76C218.66,0,227,8.34,227,18.62
		v46.76C227,75.66,218.66,84,208.38,84z"/>
	<g>
		<path class="st1" d="M127.64,25.81c-1.14,0-2.02,0.43-2.65,1.28s-0.94,2.05-0.94,3.58c0,3.18,1.19,4.78,3.58,4.78
			c1,0,2.22-0.25,3.64-0.75v2.54c-1.17,0.49-2.48,0.73-3.93,0.73c-2.08,0-3.67-0.63-4.77-1.89c-1.1-1.26-1.65-3.07-1.65-5.42
			c0-1.48,0.27-2.79,0.81-3.9s1.32-1.97,2.33-2.57s2.2-0.89,3.56-0.89c1.39,0,2.78,0.33,4.18,1.01l-0.98,2.46
			c-0.53-0.25-1.07-0.48-1.61-0.66C128.69,25.9,128.16,25.81,127.64,25.81z"/>
		<path class="st1" d="M144,32.29c0,1.78-0.47,3.17-1.41,4.17s-2.24,1.5-3.92,1.5c-1.05,0-1.97-0.23-2.77-0.69s-1.42-1.12-1.85-1.98
			s-0.64-1.86-0.64-3.01c0-1.78,0.47-3.17,1.4-4.16s2.24-1.48,3.93-1.48c1.05,0,1.97,0.23,2.77,0.68s1.42,1.11,1.85,1.96
			S144,31.15,144,32.29z M136.45,32.29c0,1.08,0.18,1.9,0.53,2.45s0.93,0.83,1.73,0.83c0.79,0,1.37-0.28,1.71-0.83
			s0.52-1.37,0.52-2.46c0-1.08-0.18-1.89-0.53-2.43s-0.93-0.81-1.73-0.81c-0.79,0-1.37,0.27-1.72,0.81S136.45,31.21,136.45,32.29z"
			/>
		<path class="st1" d="M151.06,35.59c0.52,0,1.15-0.11,1.88-0.34v2.22c-0.74,0.33-1.65,0.5-2.73,0.5c-1.19,0-2.06-0.3-2.6-0.9
			s-0.82-1.51-0.82-2.71v-5.26h-1.43v-1.26l1.64-1l0.86-2.3h1.9v2.32h3.06v2.24h-3.06v5.26c0,0.42,0.12,0.74,0.36,0.94
			S150.67,35.59,151.06,35.59z"/>
		<path class="st1" d="M162.08,37.77l-0.58-1.48h-0.08c-0.5,0.63-1.02,1.07-1.55,1.31s-1.22,0.37-2.08,0.37
			c-1.05,0-1.87-0.3-2.48-0.9s-0.9-1.45-0.9-2.56c0-1.16,0.41-2.01,1.22-2.56s2.03-0.85,3.67-0.91l1.89-0.06V30.5
			c0-1.11-0.57-1.66-1.7-1.66c-0.87,0-1.9,0.26-3.08,0.79l-0.99-2.01c1.26-0.66,2.65-0.99,4.18-0.99c1.46,0,2.59,0.32,3.37,0.96
			s1.17,1.61,1.17,2.91v7.28H162.08z M161.2,32.71l-1.15,0.04c-0.87,0.03-1.51,0.18-1.93,0.47s-0.63,0.72-0.63,1.31
			c0,0.84,0.48,1.26,1.45,1.26c0.69,0,1.24-0.2,1.66-0.6s0.62-0.92,0.62-1.58V32.71z"/>
		<path class="st1" d="M171.66,37.97c-3.4,0-5.1-1.87-5.1-5.6c0-1.86,0.46-3.27,1.39-4.25s2.25-1.47,3.97-1.47
			c1.26,0,2.4,0.25,3.4,0.74l-0.88,2.3c-0.47-0.19-0.9-0.34-1.31-0.46s-0.81-0.18-1.21-0.18c-1.55,0-2.32,1.1-2.32,3.3
			c0,2.14,0.77,3.2,2.32,3.2c0.57,0,1.1-0.08,1.59-0.23s0.98-0.39,1.46-0.72v2.55c-0.48,0.31-0.97,0.52-1.46,0.63
			S172.41,37.97,171.66,37.97z M173.52,40.21c0,0.83-0.25,1.44-0.74,1.81s-1.25,0.56-2.28,0.56c-0.51,0-0.98-0.07-1.43-0.21v-1.64
			c0.18,0.05,0.41,0.09,0.71,0.14s0.53,0.07,0.69,0.07c0.47,0,0.7-0.2,0.7-0.61c0-0.54-0.54-0.89-1.62-1.05l0.76-1.5h1.88l-0.26,0.6
			c0.48,0.16,0.87,0.4,1.15,0.73S173.52,39.8,173.52,40.21z"/>
		<path class="st1" d="M184.44,37.77l-0.58-1.48h-0.08c-0.5,0.63-1.02,1.07-1.55,1.31s-1.22,0.37-2.08,0.37
			c-1.05,0-1.87-0.3-2.48-0.9s-0.9-1.45-0.9-2.56c0-1.16,0.41-2.01,1.22-2.56s2.03-0.85,3.67-0.91l1.89-0.06V30.5
			c0-1.11-0.57-1.66-1.7-1.66c-0.87,0-1.9,0.26-3.08,0.79l-0.99-2.01c1.26-0.66,2.65-0.99,4.18-0.99c1.46,0,2.59,0.32,3.37,0.96
			s1.17,1.61,1.17,2.91v7.28H184.44z M180.51,24.63c-0.2,0-0.4,0.09-0.58,0.26s-0.32,0.43-0.41,0.79h-1.46
			c0.07-0.94,0.34-1.68,0.81-2.22s1.08-0.8,1.85-0.8c0.27,0,0.53,0.05,0.79,0.16s0.51,0.22,0.76,0.35s0.5,0.24,0.74,0.35
			s0.48,0.16,0.71,0.16c0.2,0,0.4-0.08,0.58-0.25s0.32-0.43,0.41-0.78h1.46c-0.07,0.94-0.34,1.68-0.82,2.22s-1.09,0.8-1.84,0.8
			c-0.27,0-0.53-0.05-0.79-0.16s-0.51-0.22-0.76-0.35s-0.5-0.24-0.74-0.35S180.74,24.63,180.51,24.63z M183.56,32.71l-1.15,0.04
			c-0.87,0.03-1.51,0.18-1.93,0.47s-0.63,0.72-0.63,1.31c0,0.84,0.48,1.26,1.45,1.26c0.69,0,1.24-0.2,1.66-0.6s0.62-0.92,0.62-1.58
			V32.71z"/>
		<path class="st1" d="M199.51,32.29c0,1.78-0.47,3.17-1.41,4.17s-2.24,1.5-3.92,1.5c-1.05,0-1.97-0.23-2.77-0.69
			s-1.42-1.12-1.85-1.98s-0.64-1.86-0.64-3.01c0-1.78,0.47-3.17,1.4-4.16s2.24-1.48,3.93-1.48c1.05,0,1.97,0.23,2.77,0.68
			s1.42,1.11,1.85,1.96S199.51,31.15,199.51,32.29z M191.96,32.29c0,1.08,0.18,1.9,0.53,2.45s0.93,0.83,1.73,0.83
			c0.79,0,1.37-0.28,1.71-0.83s0.52-1.37,0.52-2.46c0-1.08-0.18-1.89-0.53-2.43s-0.93-0.81-1.73-0.81c-0.79,0-1.37,0.27-1.72,0.81
			S191.96,31.21,191.96,32.29z"/>
		<path class="st1" d="M134.53,53.61c0,2.36-0.59,4.18-1.76,5.45s-2.85,1.9-5.04,1.9s-3.87-0.63-5.04-1.9s-1.76-3.09-1.76-5.47
			s0.59-4.19,1.76-5.44s2.86-1.88,5.05-1.88s3.87,0.63,5.03,1.89S134.53,51.24,134.53,53.61z M124.11,53.61c0,1.59,0.3,2.8,0.91,3.6
			s1.51,1.21,2.71,1.21c2.42,0,3.62-1.6,3.62-4.81c0-3.22-1.2-4.82-3.6-4.82c-1.2,0-2.11,0.41-2.72,1.22S124.11,52.02,124.11,53.61z
			"/>
		<path class="st1" d="M147.33,60.77h-2.98v-6.38c0-0.79-0.14-1.38-0.42-1.77s-0.73-0.59-1.34-0.59c-0.83,0-1.44,0.28-1.81,0.83
			s-0.56,1.48-0.56,2.77v5.14h-2.98V49.85h2.28l0.4,1.4h0.17c0.33-0.53,0.79-0.93,1.37-1.2s1.25-0.41,1.99-0.41
			c1.27,0,2.23,0.34,2.89,1.03s0.99,1.68,0.99,2.97V60.77z"/>
		<path class="st1" d="M149.43,56.63v-2.44h5.24v2.44H149.43z"/>
		<path class="st1" d="M159.81,60.77h-2.98v-15.2h2.98V60.77z"/>
		<path class="st1" d="M162.81,47.03c0-0.97,0.54-1.46,1.62-1.46s1.62,0.49,1.62,1.46c0,0.46-0.14,0.82-0.41,1.08
			s-0.68,0.39-1.22,0.39C163.35,48.5,162.81,48.01,162.81,47.03z M165.92,60.77h-2.98V49.85h2.98V60.77z"/>
		<path class="st1" d="M179.12,60.77h-2.98v-6.38c0-0.79-0.14-1.38-0.42-1.77s-0.73-0.59-1.34-0.59c-0.83,0-1.44,0.28-1.81,0.83
			s-0.56,1.48-0.56,2.77v5.14h-2.98V49.85h2.28l0.4,1.4h0.17c0.33-0.53,0.79-0.93,1.37-1.2s1.25-0.41,1.99-0.41
			c1.27,0,2.23,0.34,2.89,1.03s0.99,1.68,0.99,2.97V60.77z"/>
		<path class="st1" d="M187.13,60.97c-1.76,0-3.13-0.49-4.12-1.46s-1.48-2.34-1.48-4.12c0-1.83,0.46-3.24,1.37-4.24
			s2.18-1.5,3.79-1.5c1.54,0,2.74,0.44,3.6,1.32s1.29,2.09,1.29,3.64v1.45h-7.04c0.03,0.85,0.28,1.51,0.75,1.98s1.13,0.71,1.97,0.71
			c0.66,0,1.28-0.07,1.87-0.21s1.2-0.35,1.84-0.65v2.3c-0.52,0.26-1.08,0.45-1.67,0.58S187.98,60.97,187.13,60.97z M186.71,51.77
			c-0.63,0-1.13,0.2-1.48,0.6s-0.56,0.97-0.62,1.7h4.18c-0.01-0.74-0.21-1.3-0.58-1.7S187.34,51.77,186.71,51.77z"/>
	</g>
	<g>
		<g>
			<path class="st2" d="M93.18,34.71c-0.08-0.31-0.15-0.62-0.24-0.93c-3.65-13.61-16.39-23.5-31.32-22.78
				C45.83,11.78,33,24.72,32.37,40.52c-0.31,7.78,2.25,14.94,6.73,20.52c0.95,1.19,1.98,2.3,3.09,3.33c3.01,2.8,6.6,5.01,10.55,6.43
				c0.58,0.22,1.18,0.41,1.78,0.59c2.74,0.8,5.65,1.23,8.65,1.23c1.19,0,2.37-0.07,3.53-0.2c5.64-0.64,10.81-2.81,15.1-6.07
				c0.44-0.33,0.87-0.68,1.28-1.03c1.16-0.98,2.24-2.04,3.23-3.18c1.03-1.17,1.98-2.42,2.82-3.74c2.88-4.49,4.63-9.77,4.84-15.44
				C93.99,42.58,94,42.19,94,41.8C94,39.36,93.71,36.99,93.18,34.71z"/>
			<path class="st3" d="M94,41.8c0,0.39-0.01,0.78-0.02,1.16c-0.21,5.67-1.95,10.95-4.84,15.44c-0.84,1.32-1.79,2.57-2.82,3.74
				c-1.36,1.55-2.87,2.96-4.52,4.21c-4.3,3.26-9.46,5.42-15.1,6.07c-1.16,0.13-2.34,0.2-3.53,0.2c-3.01,0-5.91-0.43-8.65-1.23
				c-0.6-0.17-1.2-0.37-1.78-0.59l-7.57-7.92l36.65-40.21l11.37,12.04C93.72,36.99,94,39.36,94,41.8z"/>
			<path class="st4" d="M83.09,25.67v39.66c-0.42,0.36-0.84,0.7-1.28,1.03c-4.3,3.26-9.46,5.42-15.1,6.07
				c-1.16,0.13-2.34,0.2-3.53,0.2c-3.01,0-5.91-0.43-8.65-1.23c-0.61-0.17-1.2-0.37-1.78-0.59c-3.95-1.42-7.54-3.63-10.55-6.43
				V31.76l10.53-11.52h25.41C80.86,20.24,83.09,22.68,83.09,25.67z"/>
			
				<linearGradient id="SVGID_00000065058179356247892160000007879342004836594353_" gradientUnits="userSpaceOnUse" x1="54.5967" y1="32.8183" x2="47.2562" y2="25.8084">
				<stop  offset="0" style="stop-color:#F3E8DF"/>
				<stop  offset="1" style="stop-color:#CEC4BE"/>
			</linearGradient>
			
				<polygon style="fill-rule:evenodd;clip-rule:evenodd;fill:url(#SVGID_00000065058179356247892160000007879342004836594353_);" points="
				42.19,31.75 52.72,20.24 61.15,28.98 50.66,39.17 			"/>
			<polygon class="st6" points="42.19,31.75 52.72,20.24 52.72,31.75 			"/>
		</g>
		<g>
			<path class="st7" d="M52.18,39.93c0.07-0.07,0.07-0.17,0.09-0.25c0.27-0.8,1.27-1.39,2.17-0.68c0.59,0.47,1.11,1.01,1.63,1.56
				c1.34,1.42,2.74,2.77,4.1,4.16c0.22,0.22,0.43,0.46,0.64,0.69c0.65,0.76,0.78,1.65,0.71,2.61c-0.07,0.85-0.31,1.61-0.92,2.24
				c-0.61,0.62-1.19,1.26-1.79,1.88c-1.24,1.28-2.54,2.49-3.77,3.78c-0.19,0.2-0.4,0.38-0.64,0.53c-0.81,0.51-1.76,0.2-2.12-0.68
				c-0.03-0.07-0.02-0.15-0.09-0.2c0-0.15,0-0.31,0-0.46c0.12-0.39,0.33-0.73,0.63-1.02c1.75-1.73,3.47-3.49,5.23-5.2
				c0.19-0.18,0.37-0.38,0.52-0.6c0.21-0.31,0.25-0.72,0.07-1.05c-0.15-0.28-0.35-0.51-0.57-0.72c-1.31-1.32-2.68-2.58-3.98-3.92
				c-0.25-0.26-0.51-0.51-0.77-0.76c-0.47-0.43-0.92-0.87-1.13-1.5C52.18,40.2,52.18,40.06,52.18,39.93z"/>
			<path class="st7" d="M55.82,59.03c-0.28-0.11-0.57-0.21-0.79-0.44c-0.52-0.53-0.57-1.27-0.12-1.86c0.07-0.09,0.14-0.18,0.23-0.26
				c1.85-1.77,3.63-3.62,5.46-5.41c0.22-0.22,0.47-0.42,0.7-0.63c0.55-0.51,1.23-0.69,1.96-0.74c0.6-0.04,1.2,0.02,1.79,0.22
				c0.48,0.17,0.91,0.46,1.28,0.82c1.78,1.69,3.48,3.45,5.24,5.16c0.27,0.26,0.54,0.53,0.75,0.84c0.65,0.93,0.24,2.01-0.88,2.28
				c-0.02,0.01-0.04,0.02-0.06,0.03c-0.09,0-0.18,0-0.28,0c-0.52-0.11-0.9-0.43-1.26-0.8c-1.68-1.69-3.36-3.38-5.05-5.07
				c-0.19-0.19-0.38-0.37-0.6-0.51c-0.3-0.2-0.69-0.25-1.01-0.09c-0.33,0.16-0.58,0.4-0.83,0.65c-1.11,1.1-2.14,2.28-3.27,3.36
				c-0.54,0.52-1.08,1.04-1.61,1.58c-0.38,0.39-0.78,0.76-1.33,0.87C56.04,59.03,55.93,59.03,55.82,59.03z"/>
			<path class="st7" d="M71.39,36.38c0.49,0.13,0.86,0.41,1.08,0.87c0.23,0.48,0.14,1.16-0.23,1.52c-1.96,1.92-3.86,3.9-5.85,5.8
				c-0.49,0.47-1.01,0.92-1.69,1.05c-1.36,0.27-2.65,0.18-3.71-0.85c-2.03-1.99-4.08-3.96-6.04-6.03c-0.69-0.73-0.39-1.91,0.64-2.27
				c0.08-0.03,0.17-0.01,0.23-0.09c0.11,0,0.21,0,0.32,0c0.51,0.09,0.85,0.45,1.19,0.8c1.7,1.71,3.4,3.41,5.11,5.11
				c0.17,0.17,0.35,0.34,0.56,0.47c0.35,0.23,0.82,0.25,1.17,0.01c0.26-0.18,0.48-0.39,0.7-0.61c1.66-1.66,3.33-3.33,4.99-5
				c0.37-0.37,0.75-0.7,1.29-0.79C71.23,36.38,71.31,36.38,71.39,36.38z"/>
			<path class="st7" d="M65.67,47.91c-0.02-1.29,0.35-2.2,1.09-2.95c1.78-1.81,3.56-3.62,5.35-5.43c0.35-0.35,0.71-0.68,1.21-0.81
				c0.56-0.14,0.97,0.11,1.33,0.49c0.36,0.38,0.46,0.84,0.27,1.34c-0.1,0.28-0.28,0.51-0.49,0.72c-1.68,1.68-3.37,3.36-5.06,5.03
				c-0.24,0.24-0.49,0.48-0.7,0.76c-0.3,0.42-0.3,0.84-0.02,1.26c0.08,0.11,0.16,0.23,0.25,0.33c0.63,0.66,1.27,1.31,1.95,1.92
				c0.55,0.5,1.07,1.03,1.6,1.56c0.66,0.66,1.32,1.33,1.98,2c0.37,0.38,0.6,0.82,0.56,1.38c-0.04,0.68-1.05,1.58-1.96,1.08
				c-0.29-0.16-0.53-0.36-0.76-0.59c-1.81-1.83-3.61-3.68-5.44-5.5C66.03,49.72,65.59,48.82,65.67,47.91z"/>
		</g>
	</g>
</g>
</svg>
