<?xml version="1.0" encoding="utf-8"?>
<!-- Generator: Adobe Illustrator 26.5.0, SVG Export Plug-In . SVG Version: 6.00 Build 0)  -->
<svg version="1.1" id="Camada_1" xmlns="http://www.w3.org/2000/svg" xmlns:xlink="http://www.w3.org/1999/xlink" x="0px" y="0px"
	 viewBox="0 0 125.46 125.45" style="enable-background:new 0 0 125.46 125.45;" xml:space="preserve">
<path d="M123.26,107.36l-14.02,14.02C97.62,133,64.65,118.87,35.62,89.82s-43.18-62-31.56-73.62L18.08,2.19
	c2.89-2.91,7.6-2.92,10.5-0.02c0.01,0.01,0.01,0.01,0.02,0.02l17.52,17.47c2.91,2.91,2.91,7.62,0,10.52L35.62,40.69
	c10.2,21.54,27.54,38.88,49.08,49.08l10.51-10.51c2.89-2.91,7.6-2.92,10.5-0.02c0.01,0.01,0.01,0.01,0.02,0.02l17.52,17.52
	c2.92,2.89,2.94,7.61,0.05,10.53C123.29,107.33,123.28,107.35,123.26,107.36z"/>
</svg>
