<?xml version="1.0" encoding="utf-8"?>
<!-- Generator: Adobe Illustrator 26.5.0, SVG Export Plug-In . SVG Version: 6.00 Build 0)  -->
<svg version="1.1" id="Camada_1" xmlns="http://www.w3.org/2000/svg" xmlns:xlink="http://www.w3.org/1999/xlink" x="0px" y="0px"
	 viewBox="0 0 14.88 19.3" style="enable-background:new 0 0 14.88 19.3;" xml:space="preserve">
<style type="text/css">
	.st0{fill:url(#SVGID_1_);}
</style>
<linearGradient id="SVGID_1_" gradientUnits="userSpaceOnUse" x1="0" y1="9.6524" x2="14.8783" y2="9.6524">
	<stop  offset="0" style="stop-color:#F39223"/>
	<stop  offset="1" style="stop-color:#FED541"/>
</linearGradient>
<path class="st0" d="M7.44,0C3.34,0,0,3.34,0,7.44c0,2.93,1.23,5.9,3.55,8.57c1.73,2,3.45,3.13,3.53,3.18
	c0.11,0.07,0.24,0.11,0.36,0.11c0.13,0,0.25-0.04,0.36-0.11c0.07-0.05,1.79-1.18,3.53-3.18c2.32-2.68,3.55-5.64,3.55-8.57
	C14.88,3.34,11.54,0,7.44,0z M7.44,10.39c-1.63,0-2.95-1.32-2.95-2.95c0-1.63,1.32-2.95,2.95-2.95c1.63,0,2.95,1.32,2.95,2.95
	C10.39,9.07,9.07,10.39,7.44,10.39z"/>
</svg>
