<?xml version="1.0" encoding="utf-8"?>
<!-- Generator: Adobe Illustrator 26.5.0, SVG Export Plug-In . SVG Version: 6.00 Build 0)  -->
<svg version="1.1" id="Camada_1" xmlns="http://www.w3.org/2000/svg" xmlns:xlink="http://www.w3.org/1999/xlink" x="0px" y="0px"
	 viewBox="0 0 53.81 54.01" style="enable-background:new 0 0 53.81 54.01;" xml:space="preserve">
<style type="text/css">
	.st0{fill:#FFFFFF;}
</style>
<g>
	<g>
		<path class="st0" d="M40.2,29.92v9.97h-5.75v-9.33c0-2.3-0.89-3.96-2.94-3.96c-1.53,0-2.56,1.02-2.94,2.17
			c-0.13,0.38-0.13,0.89-0.13,1.41v9.72h-5.75c0,0,0.13-15.73,0-17.39h5.75v2.43l0,0l0,0l0,0c0.77-1.15,2.17-2.81,5.24-2.81
			C37.39,22.12,40.2,24.55,40.2,29.92L40.2,29.92z M16.55,14.19c-1.92,0-3.32,1.28-3.32,2.94s1.28,2.94,3.2,2.94l0,0
			c2.05,0,3.32-1.28,3.32-2.94S18.47,14.19,16.55,14.19L16.55,14.19z M13.61,39.89h5.75V22.5h-5.75V39.89z"/>
	</g>
	<path class="st0" d="M26.78,0c3.58,0.13,7.29,0.13,10.87,0.26c3.2,0.13,6.14,0.64,8.95,2.3c3.58,2.17,5.75,5.37,6.52,9.46
		c0.38,2.43,0.51,4.99,0.64,7.42c0.13,5.37,0,10.74,0,16.11c0,2.81-0.13,5.63-1.02,8.31c-1.79,5.24-5.5,8.44-10.87,9.46
		c-2.43,0.51-4.99,0.51-7.42,0.64c-5.37,0.13-10.61,0-15.98,0c-2.81,0-5.63-0.13-8.31-1.02c-5.24-1.79-8.44-5.5-9.46-10.87
		c-0.51-2.43-0.51-4.99-0.64-7.42c-0.13-5.37,0-10.74,0-16.11c0-2.81,0.13-5.63,1.02-8.31c1.79-5.24,5.5-8.44,10.87-9.46
		c2.43-0.51,4.99-0.51,7.42-0.64C21.79,0,24.22,0.13,26.78,0C26.78,0.13,26.78,0.13,26.78,0z M48.9,26.59
		C48.9,26.59,48.77,26.59,48.9,26.59c-0.13-2.17-0.13-4.22-0.13-6.39c0-2.05-0.13-4.09-0.38-6.14c-0.51-4.6-3.2-7.67-7.67-8.57
		c-2.3-0.51-4.86-0.51-7.16-0.51c-4.6-0.13-9.08-0.13-13.68,0c-2.3,0-4.6,0.13-6.78,0.51c-3.84,0.64-6.52,2.81-7.67,6.65
		c-0.38,1.28-0.51,2.56-0.64,3.84c-0.13,4.86-0.13,9.72-0.13,14.58c0,3.07,0.13,6.26,0.38,9.33c0.38,4.6,3.2,7.8,7.8,8.57
		c2.3,0.38,4.73,0.51,7.16,0.51c4.47,0.13,8.95,0,13.55,0c2.05,0,4.09-0.13,6.14-0.38c1.92-0.13,3.71-0.77,5.24-2.05
		c2.56-2.05,3.45-4.73,3.58-7.8C48.77,34.78,48.77,30.68,48.9,26.59z"/>
</g>
</svg>
