<?xml version="1.0" encoding="utf-8"?>
<!-- Generator: Adobe Illustrator 26.5.0, SVG Export Plug-In . SVG Version: 6.00 Build 0)  -->
<svg version="1.1" id="Camada_1" xmlns="http://www.w3.org/2000/svg" xmlns:xlink="http://www.w3.org/1999/xlink" x="0px" y="0px"
	 viewBox="0 0 16.82 16.89" style="enable-background:new 0 0 16.82 16.89;" xml:space="preserve">
<style type="text/css">
	.st0{fill:url(#SVGID_1_);}
</style>
<linearGradient id="SVGID_1_" gradientUnits="userSpaceOnUse" x1="0" y1="8.4436" x2="16.8209" y2="8.4436">
	<stop  offset="0" style="stop-color:#F39223"/>
	<stop  offset="1" style="stop-color:#FED541"/>
</linearGradient>
<path class="st0" d="M0,1.99c0-0.49,0.18-0.98,0.52-1.34C0.89,0.24,1.42,0,1.98,0h2.65c1.01,0,1.85,0.75,1.96,1.75
	c0.07,0.59,0.19,1.17,0.36,1.74C7.17,4.2,6.98,4.96,6.46,5.48L5.39,6.56c1.13,2.07,2.84,3.79,4.9,4.92l1.07-1.08
	c0.52-0.52,1.27-0.71,1.98-0.49c0.56,0.17,1.14,0.29,1.73,0.36c1,0.11,1.75,0.96,1.75,1.97v2.66c0,0.56-0.23,1.09-0.64,1.46
	c-0.41,0.38-0.96,0.56-1.52,0.51c-1.9-0.18-3.74-0.68-5.46-1.51c-1.67-0.8-3.19-1.88-4.5-3.2C3.38,10.86,2.3,9.34,1.51,7.66
	c-0.82-1.73-1.32-3.57-1.5-5.48C0,2.11,0,2.05,0,1.99L0,1.99z M5.72,4.08"/>
</svg>
