<?xml version="1.0" encoding="utf-8"?>
<!-- Generator: Adobe Illustrator 26.5.0, SVG Export Plug-In . SVG Version: 6.00 Build 0)  -->
<svg version="1.1" id="Camada_1" xmlns="http://www.w3.org/2000/svg" xmlns:xlink="http://www.w3.org/1999/xlink" x="0px" y="0px"
	 viewBox="0 0 21.79 21.82" style="enable-background:new 0 0 21.79 21.82;" xml:space="preserve">
<style type="text/css">
	.st0{fill:url(#SVGID_1_);}
	.st1{fill:#FFFFFF;}
</style>
<g>
	<g>
		<linearGradient id="SVGID_1_" gradientUnits="userSpaceOnUse" x1="0" y1="10.9117" x2="21.7917" y2="10.9117">
			<stop  offset="0" style="stop-color:#F39223"/>
			<stop  offset="1" style="stop-color:#FED541"/>
		</linearGradient>
		<path class="st0" d="M0,21.82c0.62-1.81,1.19-3.52,1.76-5.18c0.1-0.26,0.05-0.62-0.05-0.88c-2.07-4.09-1.86-8.08,0.98-11.65
			s6.73-4.87,11.14-3.68s7.1,4.2,7.82,8.7c0.62,4.14-0.83,7.61-4.25,10.05c-3.42,2.49-7.15,2.75-10.98,1.04
			c-0.41-0.16-0.73-0.21-1.14-0.1C3.57,20.68,1.86,21.25,0,21.82z"/>
		<path class="st1" d="M5.8,8.3c0.05-0.83,0.31-1.5,0.93-2.07C7.41,5.56,8.34,5.71,8.7,6.59c0.16,0.41,0.31,0.88,0.52,1.24
			c0.31,0.57,0.21,1.04-0.26,1.45c-0.52,0.41-0.41,0.83-0.05,1.29c0.83,1.14,1.86,2.02,3.21,2.59c0.36,0.16,0.62,0.1,0.83-0.21
			c0.05-0.1,0.16-0.21,0.26-0.31c0.73-0.83,0.73-0.83,1.71-0.36c0.41,0.21,0.83,0.41,1.24,0.57c0.36,0.16,0.41,0.36,0.36,0.73
			c-0.16,1.4-1.66,2.33-3.16,1.97c-2.33-0.57-4.25-1.71-5.7-3.63c-0.57-0.78-1.09-1.61-1.5-2.43C5.96,9.18,5.9,8.72,5.8,8.3z"/>
	</g>
</g>
</svg>
