<?xml version="1.0" encoding="utf-8"?>
<!-- Generator: Adobe Illustrator 26.5.0, SVG Export Plug-In . SVG Version: 6.00 Build 0)  -->
<svg version="1.1" id="Camada_1" xmlns="http://www.w3.org/2000/svg" xmlns:xlink="http://www.w3.org/1999/xlink" x="0px" y="0px"
	 viewBox="0 0 21.41 14.45" style="enable-background:new 0 0 21.41 14.45;" xml:space="preserve">
<style type="text/css">
	.st0{fill:url(#SVGID_1_);}
</style>
<linearGradient id="SVGID_1_" gradientUnits="userSpaceOnUse" x1="0" y1="7.2243" x2="21.4056" y2="7.2243">
	<stop  offset="0" style="stop-color:#F39223"/>
	<stop  offset="1" style="stop-color:#FED541"/>
</linearGradient>
<path class="st0" d="M0.31,0.17c0.01-0.01,0.02-0.02,0.03-0.02c0.01-0.01,0.02-0.01,0.02-0.02C0.38,0.13,0.39,0.12,0.4,0.11
	c0.01,0,0.02-0.01,0.02-0.01c0.01-0.01,0.02-0.01,0.03-0.02c0.01,0,0.02-0.01,0.03-0.01C0.49,0.06,0.5,0.06,0.52,0.05
	c0.01,0,0.02-0.01,0.03-0.01c0.01,0,0.02-0.01,0.04-0.01c0.01,0,0.02-0.01,0.03-0.01c0.01,0,0.03-0.01,0.04-0.01
	c0.01,0,0.02,0,0.03-0.01c0.01,0,0.03,0,0.04-0.01c0.01,0,0.01,0,0.02,0C0.76,0,0.78,0,0.8,0h19.8c0.02,0,0.05,0,0.07,0
	c0.01,0,0.01,0,0.02,0c0.01,0,0.03,0,0.04,0.01c0.01,0,0.02,0,0.03,0.01c0.01,0,0.03,0.01,0.04,0.01c0.01,0,0.02,0,0.03,0.01
	c0.01,0,0.02,0.01,0.04,0.01c0.01,0,0.02,0.01,0.03,0.01c0.01,0,0.02,0.01,0.03,0.01c0.01,0,0.02,0.01,0.03,0.01
	c0.01,0.01,0.02,0.01,0.03,0.02c0.01,0,0.02,0.01,0.02,0.01c0.01,0.01,0.02,0.01,0.03,0.02c0.01,0.01,0.02,0.01,0.02,0.02
	c0.01,0.01,0.02,0.02,0.03,0.02c0.01,0,0.01,0.01,0.02,0.01l-9.84,9.84c-0.15,0.15-0.35,0.23-0.57,0.23s-0.42-0.08-0.57-0.23
	L0.3,0.18C0.3,0.18,0.31,0.18,0.31,0.17L0.31,0.17z M0,2.16l5.07,5.07L0,12.3V2.16z M20.6,14.45H0.82c-0.19,0-0.37-0.07-0.51-0.18
	l5.9-5.9L9,11.16c0.45,0.45,1.06,0.7,1.7,0.7c0.64,0,1.25-0.25,1.7-0.7l2.81-2.81l5.91,5.91C20.98,14.38,20.8,14.45,20.6,14.45
	L20.6,14.45z M21.41,12.28l-5.06-5.06l5.06-5.06V12.28z"/>
</svg>
