<?xml version="1.0" encoding="utf-8"?>
<!-- Generator: Adobe Illustrator 26.5.0, SVG Export Plug-In . SVG Version: 6.00 Build 0)  -->
<svg version="1.1" id="Camada_1" xmlns="http://www.w3.org/2000/svg" xmlns:xlink="http://www.w3.org/1999/xlink" x="0px" y="0px"
	 viewBox="0 0 38.2 24.8" style="enable-background:new 0 0 38.2 24.8;" xml:space="preserve">
<path d="M3.6,0h31c0.5,0,1.1,0.1,1.5,0.3L19.6,15.8c-0.2,0.2-0.8,0.2-1,0L2.1,0.3C2.5,0.1,3,0,3.6,0L3.6,0z"/>
<path d="M0.1,2.7l16.4,15.4c1.5,1.4,3.7,1.4,5.2,0L38.1,2.7c0.1,0.3,0.1,0.6,0.1,0.9v17.6c0,2-1.6,3.6-3.6,3.6h-31
	c-2,0-3.6-1.6-3.6-3.6V3.6C0,3.3,0,3,0.1,2.7L0.1,2.7z"/>
</svg>
