<?xml version="1.0" encoding="UTF-8"?>
<svg id="Camada_2" data-name="Camada 2" xmlns="http://www.w3.org/2000/svg" viewBox="0 0 53.81 54.01">
  <defs>
    <style>
      .cls-1 {
        fill: #fff;
      }
    </style>
  </defs>
  <g id="Camada_1-2" data-name="Camada 1">
    <g>
      <path class="cls-1" d="M36.94,18.19c-.21-.11-.41-.23-.61-.35-.57-.38-1.09-.82-1.56-1.32-1.16-1.33-1.6-2.68-1.76-3.62h0c-.13-.78-.08-1.29-.07-1.29h-5.29v20.47c0,.27,0,.55-.01,.81,0,.03,0,.06,0,.1,0,.01,0,.03,0,.05h0c-.11,1.5-.96,2.84-2.26,3.58-.67,.38-1.42,.58-2.19,.58-2.47,0-4.47-2.01-4.47-4.49s2-4.49,4.47-4.49c.47,0,.93,.07,1.37,.22v-5.39c-2.72-.35-5.47,.45-7.57,2.22-.91,.79-1.68,1.74-2.27,2.8-.22,.39-1.07,1.93-1.17,4.45-.06,1.43,.36,2.9,.57,3.51h0c.13,.37,.63,1.6,1.44,2.63,.65,.83,1.43,1.56,2.29,2.16h0s.01,0,.01,0c2.56,1.74,5.4,1.63,5.4,1.63,.49-.02,2.14,0,4.01-.89,2.08-.98,3.26-2.45,3.26-2.45,.75-.88,1.35-1.87,1.77-2.95,.48-1.26,.64-2.77,.64-3.37v-10.86c.06,.04,.92,.6,.92,.6,0,0,1.23,.79,3.15,1.3,1.38,.37,3.24,.44,3.24,.44v-5.26c-.65,.07-1.97-.13-3.33-.81Z"/>
      <g id="_34hbmL.tif" data-name="34hbmL.tif">
        <path class="cls-1" d="M26.78,0c3.58,.13,7.29,.13,10.87,.26,3.2,.13,6.14,.64,8.95,2.3,3.58,2.17,5.75,5.37,6.52,9.46,.38,2.43,.51,4.99,.64,7.42,.13,5.37,0,10.74,0,16.11,0,2.81-.13,5.63-1.02,8.31-1.79,5.24-5.5,8.44-10.87,9.46-2.43,.51-4.99,.51-7.42,.64-5.37,.13-10.61,0-15.98,0-2.81,0-5.63-.13-8.31-1.02-5.24-1.79-8.44-5.5-9.46-10.87-.51-2.43-.51-4.99-.64-7.42C-.07,29.28,.06,23.91,.06,18.54,.06,15.73,.18,12.91,1.08,10.23,2.87,4.99,6.58,1.79,11.95,.77c2.43-.51,4.99-.51,7.42-.64,2.43-.13,4.86,0,7.42-.13q0,.13,0,0Zm22.12,26.59s-.13,0,0,0c-.13-2.17-.13-4.22-.13-6.39,0-2.05-.13-4.09-.38-6.14-.51-4.6-3.2-7.67-7.67-8.57-2.3-.51-4.86-.51-7.16-.51-4.6-.13-9.08-.13-13.68,0-2.3,0-4.6,.13-6.78,.51-3.84,.64-6.52,2.81-7.67,6.65-.38,1.28-.51,2.56-.64,3.84-.13,4.86-.13,9.72-.13,14.58,0,3.07,.13,6.26,.38,9.33,.38,4.6,3.2,7.8,7.8,8.57,2.3,.38,4.73,.51,7.16,.51,4.47,.13,8.95,0,13.55,0,2.05,0,4.09-.13,6.14-.38,1.92-.13,3.71-.77,5.24-2.05,2.56-2.05,3.45-4.73,3.58-7.8,.26-3.96,.26-8.05,.38-12.15Z"/>
      </g>
    </g>
  </g>
</svg>