<?xml version="1.0" encoding="UTF-8"?>
<svg id="Camada_2" data-name="Camada 2" xmlns="http://www.w3.org/2000/svg" viewBox="0 0 470.75 290.36">
  <defs>
    <style>
      .cls-1 {
        fill: #fff;
        fill-rule: evenodd;
      }

      .cls-2 {
        fill: #ca5e16;
      }
    </style>
  </defs>
  <g id="Modo_de_isolamento" data-name="Modo de isolamento">
    <rect class="cls-2" width="470.75" height="11.4"/>
    <rect class="cls-2" y="278.96" width="470.75" height="11.4"/>
    <path class="cls-1" d="M122.05,73.76V220.62c0,9.78,7.81,17.44,16.09,17.44s14.25,.65,20.24-7.93c2.77-3.97,3.23-11.61,3.23-18.23V81.14c0-19.32-6.03-23.47-22.8-23.47-9.5,0-16.76,6.46-16.76,16.09m13.41,148.2V73.09c0-7.91,12.07-6.08,12.07-1.34V221.96c0,8.4-12.07,7.91-12.07,0Z"/>
    <path class="cls-1" d="M227.33,234.71h10.06l.67-123.39c0,5.97,10,83.02,11.2,92.07l3.55,31.32h13.41V59.01h-10.06l-.67,122.72c0-5.31-.86-10.04-1.54-15.22l-13.21-107.5h-13.41V234.71Z"/>
    <path class="cls-1" d="M329.26,234.71h13.41c0-14.36,1.34-27.53,1.34-42.25h9.39c0,4.46,.69,5.81,.69,10.04l.65,21.48c-.01,4.6,.37,7.16,.67,10.73h13.41c-1.02-4.36-1.26-16.01-1.32-21.48l-8.74-154.21h-20.12l-9.39,175.69Zm19.45-159.6h.67c0,9.82,.69,17.47,.65,26.84l1.37,26.79c-.08,18.02,2,35.62,2,53.66h-9.39l2.78-66.96c.49-4.39,.48-8.27,.55-13.54l1.37-26.8Z"/>
  </g>
</svg>